<mxfile host="app.diagrams.net" modified="2020-11-15T07:32:22.268Z" agent="5.0 (Macintosh; Intel Mac OS X 10_14_6) AppleWebKit/537.36 (KHTML, like Gecko) Chrome/86.0.4240.183 Safari/537.36" etag="A0z3dzeuNdzvIPNrQlyp" version="13.9.8" type="github">
  <diagram id="kgpKYQtTHZ0yAKxKKP6v" name="Page-1">
    <mxGraphModel dx="818" dy="533" grid="1" gridSize="10" guides="1" tooltips="1" connect="1" arrows="1" fold="1" page="1" pageScale="1" pageWidth="850" pageHeight="1100" math="0" shadow="0">
      <root>
        <mxCell id="0" />
        <mxCell id="1" parent="0" />
        <mxCell id="3nuBFxr9cyL0pnOWT2aG-1" value=":client ( browser )" style="shape=umlLifeline;perimeter=lifelinePerimeter;container=1;collapsible=0;recursiveResize=0;rounded=0;shadow=0;strokeWidth=1;" parent="1" vertex="1">
          <mxGeometry x="120" y="80" width="110" height="300" as="geometry" />
        </mxCell>
        <mxCell id="3nuBFxr9cyL0pnOWT2aG-2" value="" style="points=[];perimeter=orthogonalPerimeter;rounded=0;shadow=0;strokeWidth=1;" parent="3nuBFxr9cyL0pnOWT2aG-1" vertex="1">
          <mxGeometry x="45" y="70" width="10" height="190" as="geometry" />
        </mxCell>
        <mxCell id="3nuBFxr9cyL0pnOWT2aG-5" value=":server ( web-serv)" style="shape=umlLifeline;perimeter=lifelinePerimeter;container=1;collapsible=0;recursiveResize=0;rounded=0;shadow=0;strokeWidth=1;" parent="1" vertex="1">
          <mxGeometry x="390" y="80" width="120" height="300" as="geometry" />
        </mxCell>
        <mxCell id="3nuBFxr9cyL0pnOWT2aG-6" value="" style="points=[];perimeter=orthogonalPerimeter;rounded=0;shadow=0;strokeWidth=1;" parent="3nuBFxr9cyL0pnOWT2aG-5" vertex="1">
          <mxGeometry x="50" y="80" width="10" height="160" as="geometry" />
        </mxCell>
        <mxCell id="UFMksSh6YRcL6FTbfTGl-23" style="edgeStyle=orthogonalEdgeStyle;rounded=0;orthogonalLoop=1;jettySize=auto;html=1;entryX=0.5;entryY=0;entryDx=0;entryDy=0;align=center;" edge="1" parent="3nuBFxr9cyL0pnOWT2aG-5" source="UFMksSh6YRcL6FTbfTGl-10" target="UFMksSh6YRcL6FTbfTGl-12">
          <mxGeometry relative="1" as="geometry">
            <Array as="points">
              <mxPoint x="100" y="90" />
            </Array>
          </mxGeometry>
        </mxCell>
        <mxCell id="UFMksSh6YRcL6FTbfTGl-10" value="" style="points=[];perimeter=orthogonalPerimeter;rounded=0;shadow=0;strokeWidth=1;" vertex="1" parent="3nuBFxr9cyL0pnOWT2aG-5">
          <mxGeometry x="60" y="90" width="10" height="70" as="geometry" />
        </mxCell>
        <mxCell id="UFMksSh6YRcL6FTbfTGl-22" style="edgeStyle=orthogonalEdgeStyle;rounded=0;orthogonalLoop=1;jettySize=auto;html=1;align=center;" edge="1" parent="3nuBFxr9cyL0pnOWT2aG-5" source="UFMksSh6YRcL6FTbfTGl-12" target="3nuBFxr9cyL0pnOWT2aG-5">
          <mxGeometry relative="1" as="geometry" />
        </mxCell>
        <mxCell id="UFMksSh6YRcL6FTbfTGl-12" value="&lt;font style=&quot;font-size: 10px&quot;&gt;Check Auth&lt;/font&gt;" style="text;html=1;strokeColor=none;fillColor=none;align=center;verticalAlign=middle;whiteSpace=wrap;rounded=0;" vertex="1" parent="3nuBFxr9cyL0pnOWT2aG-5">
          <mxGeometry x="80" y="100" width="40" height="20" as="geometry" />
        </mxCell>
        <mxCell id="3nuBFxr9cyL0pnOWT2aG-7" value="return" style="verticalAlign=bottom;endArrow=open;dashed=1;endSize=8;exitX=0;exitY=0.95;shadow=0;strokeWidth=1;" parent="1" source="3nuBFxr9cyL0pnOWT2aG-6" target="3nuBFxr9cyL0pnOWT2aG-2" edge="1">
          <mxGeometry relative="1" as="geometry">
            <mxPoint x="275" y="236" as="targetPoint" />
            <Array as="points">
              <mxPoint x="340" y="312" />
            </Array>
          </mxGeometry>
        </mxCell>
        <mxCell id="3nuBFxr9cyL0pnOWT2aG-8" value="{ &#xa;  title,&#xa;  recurrence, &#xa;  description,&#xa;  tagID&#xa;  }&#xa;" style="verticalAlign=bottom;endArrow=block;entryX=0;entryY=0;shadow=0;strokeWidth=1;align=left;" parent="1" source="3nuBFxr9cyL0pnOWT2aG-2" target="3nuBFxr9cyL0pnOWT2aG-6" edge="1">
          <mxGeometry relative="1" as="geometry">
            <mxPoint x="275" y="160" as="sourcePoint" />
          </mxGeometry>
        </mxCell>
        <mxCell id="UFMksSh6YRcL6FTbfTGl-1" value="Actor" style="shape=umlActor;verticalLabelPosition=bottom;verticalAlign=top;html=1;outlineConnect=0;" vertex="1" parent="1">
          <mxGeometry x="40" y="120" width="30" height="60" as="geometry" />
        </mxCell>
        <mxCell id="3nuBFxr9cyL0pnOWT2aG-3" value="Create habit " style="verticalAlign=bottom;startArrow=oval;endArrow=block;startSize=8;shadow=0;strokeWidth=1;exitX=0.5;exitY=0.5;exitDx=0;exitDy=0;exitPerimeter=0;" parent="1" target="3nuBFxr9cyL0pnOWT2aG-2" edge="1" source="UFMksSh6YRcL6FTbfTGl-1">
          <mxGeometry relative="1" as="geometry">
            <mxPoint x="105" y="150" as="sourcePoint" />
          </mxGeometry>
        </mxCell>
        <mxCell id="UFMksSh6YRcL6FTbfTGl-2" value=":client ( browser )" style="shape=umlLifeline;perimeter=lifelinePerimeter;container=1;collapsible=0;recursiveResize=0;rounded=0;shadow=0;strokeWidth=1;" vertex="1" parent="1">
          <mxGeometry x="120" y="410" width="110" height="300" as="geometry" />
        </mxCell>
        <mxCell id="UFMksSh6YRcL6FTbfTGl-3" value="" style="points=[];perimeter=orthogonalPerimeter;rounded=0;shadow=0;strokeWidth=1;" vertex="1" parent="UFMksSh6YRcL6FTbfTGl-2">
          <mxGeometry x="45" y="70" width="10" height="190" as="geometry" />
        </mxCell>
        <mxCell id="UFMksSh6YRcL6FTbfTGl-4" value=":server ( web-serv)" style="shape=umlLifeline;perimeter=lifelinePerimeter;container=1;collapsible=0;recursiveResize=0;rounded=0;shadow=0;strokeWidth=1;" vertex="1" parent="1">
          <mxGeometry x="390" y="410" width="110" height="300" as="geometry" />
        </mxCell>
        <mxCell id="UFMksSh6YRcL6FTbfTGl-5" value="" style="points=[];perimeter=orthogonalPerimeter;rounded=0;shadow=0;strokeWidth=1;" vertex="1" parent="UFMksSh6YRcL6FTbfTGl-4">
          <mxGeometry x="50" y="80" width="10" height="160" as="geometry" />
        </mxCell>
        <mxCell id="UFMksSh6YRcL6FTbfTGl-6" value="return" style="verticalAlign=bottom;endArrow=open;dashed=1;endSize=8;exitX=0;exitY=0.95;shadow=0;strokeWidth=1;" edge="1" parent="1" source="UFMksSh6YRcL6FTbfTGl-5" target="UFMksSh6YRcL6FTbfTGl-3">
          <mxGeometry relative="1" as="geometry">
            <mxPoint x="275" y="566" as="targetPoint" />
          </mxGeometry>
        </mxCell>
        <mxCell id="UFMksSh6YRcL6FTbfTGl-7" value="getJournal" style="verticalAlign=bottom;endArrow=block;entryX=0;entryY=0;shadow=0;strokeWidth=1;align=left;" edge="1" parent="1" source="UFMksSh6YRcL6FTbfTGl-3" target="UFMksSh6YRcL6FTbfTGl-5">
          <mxGeometry relative="1" as="geometry">
            <mxPoint x="275" y="490" as="sourcePoint" />
          </mxGeometry>
        </mxCell>
        <mxCell id="UFMksSh6YRcL6FTbfTGl-8" value="Actor" style="shape=umlActor;verticalLabelPosition=bottom;verticalAlign=top;html=1;outlineConnect=0;" vertex="1" parent="1">
          <mxGeometry x="40" y="450" width="30" height="60" as="geometry" />
        </mxCell>
        <mxCell id="UFMksSh6YRcL6FTbfTGl-9" value="Journal" style="verticalAlign=bottom;startArrow=oval;endArrow=block;startSize=8;shadow=0;strokeWidth=1;exitX=0.5;exitY=0.5;exitDx=0;exitDy=0;exitPerimeter=0;" edge="1" parent="1" source="UFMksSh6YRcL6FTbfTGl-8" target="UFMksSh6YRcL6FTbfTGl-3">
          <mxGeometry relative="1" as="geometry">
            <mxPoint x="105" y="480" as="sourcePoint" />
          </mxGeometry>
        </mxCell>
        <mxCell id="UFMksSh6YRcL6FTbfTGl-13" value="return 401" style="verticalAlign=bottom;endArrow=open;dashed=1;endSize=8;shadow=0;strokeWidth=1;" edge="1" parent="1" target="3nuBFxr9cyL0pnOWT2aG-2">
          <mxGeometry relative="1" as="geometry">
            <mxPoint x="180" y="220" as="targetPoint" />
            <mxPoint x="445" y="220" as="sourcePoint" />
            <Array as="points">
              <mxPoint x="345" y="220" />
            </Array>
          </mxGeometry>
        </mxCell>
        <mxCell id="UFMksSh6YRcL6FTbfTGl-14" value="createHabit" style="verticalAlign=bottom;endArrow=block;shadow=0;strokeWidth=1;align=center;" edge="1" parent="1">
          <mxGeometry relative="1" as="geometry">
            <mxPoint x="450" y="250.0000000000001" as="sourcePoint" />
            <mxPoint x="600" y="250" as="targetPoint" />
          </mxGeometry>
        </mxCell>
        <mxCell id="UFMksSh6YRcL6FTbfTGl-15" value=":datastore" style="shape=umlLifeline;perimeter=lifelinePerimeter;container=1;collapsible=0;recursiveResize=0;rounded=0;shadow=0;strokeWidth=1;" vertex="1" parent="1">
          <mxGeometry x="550" y="80" width="110" height="300" as="geometry" />
        </mxCell>
        <mxCell id="UFMksSh6YRcL6FTbfTGl-16" value="" style="points=[];perimeter=orthogonalPerimeter;rounded=0;shadow=0;strokeWidth=1;" vertex="1" parent="UFMksSh6YRcL6FTbfTGl-15">
          <mxGeometry x="50" y="80" width="10" height="160" as="geometry" />
        </mxCell>
        <mxCell id="UFMksSh6YRcL6FTbfTGl-17" value="create success" style="verticalAlign=bottom;endArrow=open;dashed=1;endSize=8;shadow=0;strokeWidth=1;" edge="1" parent="1" source="UFMksSh6YRcL6FTbfTGl-15">
          <mxGeometry relative="1" as="geometry">
            <mxPoint x="450" y="280" as="targetPoint" />
            <mxPoint x="715" y="280" as="sourcePoint" />
            <Array as="points">
              <mxPoint x="590" y="280" />
            </Array>
          </mxGeometry>
        </mxCell>
        <mxCell id="UFMksSh6YRcL6FTbfTGl-18" value=":datastore" style="shape=umlLifeline;perimeter=lifelinePerimeter;container=1;collapsible=0;recursiveResize=0;rounded=0;shadow=0;strokeWidth=1;" vertex="1" parent="1">
          <mxGeometry x="550" y="410" width="110" height="300" as="geometry" />
        </mxCell>
        <mxCell id="UFMksSh6YRcL6FTbfTGl-19" value="" style="points=[];perimeter=orthogonalPerimeter;rounded=0;shadow=0;strokeWidth=1;" vertex="1" parent="UFMksSh6YRcL6FTbfTGl-18">
          <mxGeometry x="50" y="80" width="10" height="160" as="geometry" />
        </mxCell>
        <mxCell id="UFMksSh6YRcL6FTbfTGl-20" value="" style="points=[];perimeter=orthogonalPerimeter;rounded=0;shadow=0;strokeWidth=1;" vertex="1" parent="1">
          <mxGeometry x="590" y="550" width="10" height="70" as="geometry" />
        </mxCell>
        <mxCell id="UFMksSh6YRcL6FTbfTGl-35" style="edgeStyle=orthogonalEdgeStyle;rounded=0;orthogonalLoop=1;jettySize=auto;html=1;entryX=0.378;entryY=-0.047;entryDx=0;entryDy=0;entryPerimeter=0;align=center;" edge="1" parent="1" source="UFMksSh6YRcL6FTbfTGl-29" target="UFMksSh6YRcL6FTbfTGl-31">
          <mxGeometry relative="1" as="geometry">
            <Array as="points">
              <mxPoint x="480" y="520" />
              <mxPoint x="480" y="510" />
              <mxPoint x="515" y="510" />
            </Array>
          </mxGeometry>
        </mxCell>
        <mxCell id="UFMksSh6YRcL6FTbfTGl-29" value="" style="points=[];perimeter=orthogonalPerimeter;rounded=0;shadow=0;strokeWidth=1;" vertex="1" parent="1">
          <mxGeometry x="450.21" y="510" width="10" height="70" as="geometry" />
        </mxCell>
        <mxCell id="UFMksSh6YRcL6FTbfTGl-34" style="edgeStyle=orthogonalEdgeStyle;rounded=0;orthogonalLoop=1;jettySize=auto;html=1;entryX=1.386;entryY=0.933;entryDx=0;entryDy=0;entryPerimeter=0;align=center;" edge="1" parent="1" source="UFMksSh6YRcL6FTbfTGl-31" target="UFMksSh6YRcL6FTbfTGl-29">
          <mxGeometry relative="1" as="geometry">
            <Array as="points">
              <mxPoint x="500" y="570" />
              <mxPoint x="480" y="570" />
              <mxPoint x="480" y="575" />
            </Array>
          </mxGeometry>
        </mxCell>
        <mxCell id="UFMksSh6YRcL6FTbfTGl-31" value="&lt;font style=&quot;font-size: 10px&quot;&gt;Check Auth&lt;/font&gt;" style="text;html=1;strokeColor=none;fillColor=none;align=center;verticalAlign=middle;whiteSpace=wrap;rounded=0;" vertex="1" parent="1">
          <mxGeometry x="480" y="535" width="40" height="20" as="geometry" />
        </mxCell>
        <mxCell id="UFMksSh6YRcL6FTbfTGl-36" value="Index" style="text;html=1;strokeColor=none;fillColor=none;align=center;verticalAlign=middle;whiteSpace=wrap;rounded=0;" vertex="1" parent="1">
          <mxGeometry x="550" y="555" width="40" height="20" as="geometry" />
        </mxCell>
        <mxCell id="UFMksSh6YRcL6FTbfTGl-38" value="getJournal for user" style="verticalAlign=bottom;endArrow=block;shadow=0;strokeWidth=1;align=center;" edge="1" parent="1">
          <mxGeometry relative="1" as="geometry">
            <mxPoint x="450.21" y="600.0000000000001" as="sourcePoint" />
            <mxPoint x="590" y="600" as="targetPoint" />
          </mxGeometry>
        </mxCell>
        <mxCell id="UFMksSh6YRcL6FTbfTGl-39" value="return" style="verticalAlign=bottom;endArrow=open;dashed=1;endSize=8;shadow=0;strokeWidth=1;" edge="1" parent="1">
          <mxGeometry relative="1" as="geometry">
            <mxPoint x="449" y="617" as="targetPoint" />
            <mxPoint x="589" y="617" as="sourcePoint" />
          </mxGeometry>
        </mxCell>
      </root>
    </mxGraphModel>
  </diagram>
</mxfile>
